<svg width="2643" height="2643" viewBox="0 0 2643 2643" fill="none" xmlns="http://www.w3.org/2000/svg">
<rect width="2643" height="2643" rx="1321.5" fill="#92185A"/>
<path d="M660.758 699.321C673.304 672.317 711.696 672.317 724.242 699.321L862.078 996.003C872.857 1019.2 855.918 1045.75 830.337 1045.75H554.663C529.082 1045.75 512.143 1019.2 522.922 996.003L660.758 699.321Z" fill="url(#paint0_linear_585_811)"/>
<path d="M1918.76 699.321C1931.3 672.317 1969.7 672.317 1982.24 699.321L2120.08 996.003C2130.86 1019.2 2113.92 1045.75 2088.34 1045.75H1812.66C1787.08 1045.75 1770.14 1019.2 1780.92 996.003L1918.76 699.321Z" fill="url(#paint1_linear_585_811)"/>
<rect x="411" y="959" width="1821" height="1053" rx="209" fill="#121212"/>
<path d="M592 1348.71C776.249 1164.41 1074.98 1164.41 1259.23 1348.71C1074.98 1533.01 776.249 1533.01 592 1348.71Z" fill="#FAFAFA"/>
<path d="M1042.78 1434.82C994.263 1386.27 994.272 1307.54 1042.79 1258.99C1049 1252.78 1059.07 1252.78 1065.28 1258.99C1113.79 1307.54 1113.78 1386.27 1065.27 1434.82C1059.06 1441.03 1048.99 1441.04 1042.78 1434.82Z" fill="#FF6000"/>
<path d="M1383.77 1348.71C1568.02 1164.41 1866.75 1164.41 2051 1348.71C1866.75 1533.01 1568.02 1533.01 1383.77 1348.71Z" fill="#FAFAFA"/>
<path d="M1834.55 1434.82C1786.04 1386.27 1786.05 1307.54 1834.56 1258.99C1840.77 1252.78 1850.84 1252.78 1857.05 1258.99C1905.56 1307.54 1905.55 1386.27 1857.04 1434.82C1850.83 1441.03 1840.76 1441.04 1834.55 1434.82Z" fill="#FF6000"/>
<path d="M1705.71 1668.83C1706.31 1702.09 1700.97 1728.83 1689.7 1749.07C1678.43 1769.3 1663.8 1784.03 1645.81 1793.25C1627.62 1802.46 1608.45 1807.07 1588.28 1807.07C1568.11 1807.07 1549.73 1802.56 1533.12 1793.55C1516.32 1784.73 1497.14 1770.81 1475.59 1751.77C1460.96 1738.95 1449.3 1729.94 1440.6 1724.73C1431.7 1719.52 1422.02 1716.91 1411.54 1716.91C1394.54 1716.91 1381.09 1723.12 1371.21 1735.55C1361.32 1748.17 1356.58 1766.4 1356.97 1790.24L1292.92 1790.24C1292.33 1756.98 1297.66 1730.24 1308.93 1710C1320 1689.77 1334.63 1675.04 1352.82 1665.82C1371.01 1656.61 1390.19 1652 1410.35 1652C1430.52 1652 1448.9 1656.41 1465.51 1665.22C1482.12 1674.24 1501.29 1688.26 1523.04 1707.3C1537.47 1720.12 1549.14 1729.13 1558.03 1734.34C1566.93 1739.55 1576.62 1742.16 1587.09 1742.16C1603.11 1742.16 1616.35 1736.45 1626.83 1725.03C1637.11 1713.81 1642.05 1695.07 1641.66 1668.83L1705.71 1668.83Z" fill="#FF6000"/>
<path d="M943.022 1668.83C942.429 1702.09 947.767 1728.83 959.036 1749.07C970.304 1769.3 984.934 1784.03 1002.92 1793.25C1021.11 1802.46 1040.29 1807.07 1060.45 1807.07C1080.62 1807.07 1099.01 1802.56 1115.61 1793.55C1132.42 1784.73 1151.59 1770.81 1173.14 1751.77C1187.77 1738.95 1199.44 1729.94 1208.13 1724.73C1217.03 1719.52 1226.72 1716.91 1237.2 1716.91C1254.2 1716.91 1267.64 1723.12 1277.53 1735.55C1287.41 1748.17 1292.16 1766.4 1291.76 1790.24L1355.81 1790.24C1356.41 1756.98 1351.07 1730.24 1339.8 1710C1328.73 1689.77 1314.1 1675.04 1295.91 1665.82C1277.72 1656.61 1258.55 1652 1238.38 1652C1218.22 1652 1199.83 1656.41 1183.22 1665.22C1166.62 1674.24 1147.44 1688.26 1125.69 1707.3C1111.26 1720.12 1099.6 1729.13 1090.7 1734.34C1081.81 1739.55 1072.12 1742.16 1061.64 1742.16C1045.63 1742.16 1032.38 1736.45 1021.9 1725.03C1011.62 1713.81 1006.68 1695.07 1007.08 1668.83L943.022 1668.83Z" fill="#FFAB40"/>
<path fill-rule="evenodd" clip-rule="evenodd" d="M1355.81 1790.24L1292.92 1790.24C1292.33 1756.98 1297.66 1730.24 1308.93 1710C1313.48 1701.69 1318.62 1694.32 1324.37 1687.87C1330.11 1694.32 1335.26 1701.69 1339.8 1710C1351.07 1730.24 1356.41 1756.98 1355.81 1790.24Z" fill="#750F51"/>
<defs>
<linearGradient id="paint0_linear_585_811" x1="470" y1="907.505" x2="915" y2="907.505" gradientUnits="userSpaceOnUse">
<stop offset="0.114583" stop-color="#FF6000"/>
<stop offset="0.453125" stop-color="#FEEBE0"/>
<stop offset="1" stop-color="#FEFEFE"/>
</linearGradient>
<linearGradient id="paint1_linear_585_811" x1="1728" y1="907.505" x2="2173" y2="907.505" gradientUnits="userSpaceOnUse">
<stop offset="0.114583" stop-color="#FF6000"/>
<stop offset="0.453125" stop-color="#FEEBE0"/>
<stop offset="1" stop-color="#FEFEFE"/>
</linearGradient>
</defs>
</svg>
